<?xml version="1.0" encoding="UTF-8" standalone="no"?>
<!DOCTYPE svg PUBLIC "-//W3C//DTD SVG 1.1//EN"
 "http://www.w3.org/Graphics/SVG/1.1/DTD/svg11.dtd">
<!-- Generated by graphviz version 6.0.1 (20220911.1526)
 -->
<!-- Title: g Pages: 1 -->
<svg width="350pt" height="260pt"
 viewBox="0.00 0.00 350.00 260.00" xmlns="http://www.w3.org/2000/svg" xmlns:xlink="http://www.w3.org/1999/xlink">
<g id="graph0" class="graph" transform="scale(1 1) rotate(0) translate(4 256)">
<title>g</title>
<polygon fill="white" stroke="none" points="-4,4 -4,-256 346,-256 346,4 -4,4"/>
<!-- 7 -->
<g id="node1" class="node">
<title>7</title>
<ellipse fill="none" stroke="black" cx="135" cy="-234" rx="27" ry="18"/>
<text text-anchor="middle" x="135" y="-230.3" font-family="Times,serif" font-size="14.00">7</text>
</g>
<!-- 3 -->
<g id="node2" class="node">
<title>3</title>
<ellipse fill="none" stroke="black" cx="99" cy="-162" rx="27" ry="18"/>
<text text-anchor="middle" x="99" y="-158.3" font-family="Times,serif" font-size="14.00">3</text>
</g>
<!-- 7&#45;&#45;3 -->
<g id="edge1" class="edge">
<title>7&#45;&#45;3</title>
<path fill="none" stroke="black" d="M126.65,-216.76C120.83,-205.46 113.11,-190.44 107.3,-179.15"/>
</g>
<!-- 11 -->
<g id="node3" class="node">
<title>11</title>
<ellipse fill="none" stroke="black" cx="171" cy="-162" rx="27" ry="18"/>
<text text-anchor="middle" x="171" y="-158.3" font-family="Times,serif" font-size="14.00">11</text>
</g>
<!-- 7&#45;&#45;11 -->
<g id="edge2" class="edge">
<title>7&#45;&#45;11</title>
<path fill="none" stroke="black" d="M143.35,-216.76C149.17,-205.46 156.89,-190.44 162.7,-179.15"/>
</g>
<!-- 1 -->
<g id="node4" class="node">
<title>1</title>
<ellipse fill="none" stroke="black" cx="27" cy="-90" rx="27" ry="18"/>
<text text-anchor="middle" x="27" y="-86.3" font-family="Times,serif" font-size="14.00">1</text>
</g>
<!-- 3&#45;&#45;1 -->
<g id="edge3" class="edge">
<title>3&#45;&#45;1</title>
<path fill="none" stroke="black" d="M84.43,-146.83C72.02,-134.77 54.27,-117.51 41.8,-105.38"/>
</g>
<!-- 5 -->
<g id="node5" class="node">
<title>5</title>
<ellipse fill="none" stroke="black" cx="99" cy="-90" rx="27" ry="18"/>
<text text-anchor="middle" x="99" y="-86.3" font-family="Times,serif" font-size="14.00">5</text>
</g>
<!-- 3&#45;&#45;5 -->
<g id="edge4" class="edge">
<title>3&#45;&#45;5</title>
<path fill="none" stroke="black" d="M99,-143.7C99,-132.85 99,-118.92 99,-108.1"/>
</g>
<!-- 9 -->
<g id="node8" class="node">
<title>9</title>
<ellipse fill="none" stroke="black" cx="171" cy="-90" rx="27" ry="18"/>
<text text-anchor="middle" x="171" y="-86.3" font-family="Times,serif" font-size="14.00">9</text>
</g>
<!-- 11&#45;&#45;9 -->
<g id="edge7" class="edge">
<title>11&#45;&#45;9</title>
<path fill="none" stroke="black" d="M171,-143.7C171,-132.85 171,-118.92 171,-108.1"/>
</g>
<!-- 13 -->
<g id="node9" class="node">
<title>13</title>
<ellipse fill="none" stroke="black" cx="243" cy="-90" rx="27" ry="18"/>
<text text-anchor="middle" x="243" y="-86.3" font-family="Times,serif" font-size="14.00">13</text>
</g>
<!-- 11&#45;&#45;13 -->
<g id="edge8" class="edge">
<title>11&#45;&#45;13</title>
<path fill="none" stroke="black" d="M185.57,-146.83C197.98,-134.77 215.73,-117.51 228.2,-105.38"/>
</g>
<!-- 4 -->
<g id="node6" class="node">
<title>4</title>
<ellipse fill="none" stroke="black" cx="27" cy="-18" rx="27" ry="18"/>
<text text-anchor="middle" x="27" y="-14.3" font-family="Times,serif" font-size="14.00">4</text>
</g>
<!-- 5&#45;&#45;4 -->
<g id="edge5" class="edge">
<title>5&#45;&#45;4</title>
<path fill="none" stroke="black" d="M84.43,-74.83C72.02,-62.77 54.27,-45.51 41.8,-33.38"/>
</g>
<!-- 6 -->
<g id="node7" class="node">
<title>6</title>
<ellipse fill="none" stroke="black" cx="99" cy="-18" rx="27" ry="18"/>
<text text-anchor="middle" x="99" y="-14.3" font-family="Times,serif" font-size="14.00">6</text>
</g>
<!-- 5&#45;&#45;6 -->
<g id="edge6" class="edge">
<title>5&#45;&#45;6</title>
<path fill="none" stroke="black" d="M99,-71.7C99,-60.85 99,-46.92 99,-36.1"/>
</g>
<!-- 8 -->
<g id="node10" class="node">
<title>8</title>
<ellipse fill="none" stroke="black" cx="171" cy="-18" rx="27" ry="18"/>
<text text-anchor="middle" x="171" y="-14.3" font-family="Times,serif" font-size="14.00">8</text>
</g>
<!-- 9&#45;&#45;8 -->
<g id="edge9" class="edge">
<title>9&#45;&#45;8</title>
<path fill="none" stroke="black" d="M171,-71.7C171,-60.85 171,-46.92 171,-36.1"/>
</g>
<!-- 12 -->
<g id="node11" class="node">
<title>12</title>
<ellipse fill="none" stroke="black" cx="243" cy="-18" rx="27" ry="18"/>
<text text-anchor="middle" x="243" y="-14.3" font-family="Times,serif" font-size="14.00">12</text>
</g>
<!-- 13&#45;&#45;12 -->
<g id="edge10" class="edge">
<title>13&#45;&#45;12</title>
<path fill="none" stroke="black" d="M243,-71.7C243,-60.85 243,-46.92 243,-36.1"/>
</g>
<!-- 14 -->
<g id="node12" class="node">
<title>14</title>
<ellipse fill="none" stroke="black" cx="315" cy="-18" rx="27" ry="18"/>
<text text-anchor="middle" x="315" y="-14.3" font-family="Times,serif" font-size="14.00">14</text>
</g>
<!-- 13&#45;&#45;14 -->
<g id="edge11" class="edge">
<title>13&#45;&#45;14</title>
<path fill="none" stroke="black" d="M257.57,-74.83C269.98,-62.77 287.73,-45.51 300.2,-33.38"/>
</g>
</g>
</svg>
