<?xml version="1.0" encoding="UTF-8" standalone="no"?>
<!DOCTYPE svg PUBLIC "-//W3C//DTD SVG 1.1//EN"
 "http://www.w3.org/Graphics/SVG/1.1/DTD/svg11.dtd">
<!-- Generated by graphviz version 6.0.1 (20220911.1526)
 -->
<!-- Pages: 1 -->
<svg width="314pt" height="332pt"
 viewBox="0.00 0.00 314.00 332.00" xmlns="http://www.w3.org/2000/svg" xmlns:xlink="http://www.w3.org/1999/xlink">
<g id="graph0" class="graph" transform="scale(1 1) rotate(0) translate(4 328)">
<polygon fill="white" stroke="none" points="-4,4 -4,-328 310,-328 310,4 -4,4"/>
<!-- 3,1 -->
<g id="node1" class="node">
<title>3,1</title>
<ellipse fill="none" stroke="black" cx="135" cy="-306" rx="27" ry="18"/>
<text text-anchor="middle" x="135" y="-302.3" font-family="Times,serif" font-size="14.00">3,1</text>
</g>
<!-- 1,6 -->
<g id="node2" class="node">
<title>1,6</title>
<ellipse fill="none" stroke="black" cx="99" cy="-234" rx="27" ry="18"/>
<text text-anchor="middle" x="99" y="-230.3" font-family="Times,serif" font-size="14.00">1,6</text>
</g>
<!-- 3,1&#45;&#45;1,6 -->
<g id="edge1" class="edge">
<title>3,1&#45;&#45;1,6</title>
<path fill="none" stroke="black" d="M126.65,-288.76C120.83,-277.46 113.11,-262.44 107.3,-251.15"/>
</g>
<!-- 5,11 -->
<g id="node3" class="node">
<title>5,11</title>
<ellipse fill="none" stroke="black" cx="171" cy="-234" rx="27" ry="18"/>
<text text-anchor="middle" x="171" y="-230.3" font-family="Times,serif" font-size="14.00">5,11</text>
</g>
<!-- 3,1&#45;&#45;5,11 -->
<g id="edge2" class="edge">
<title>3,1&#45;&#45;5,11</title>
<path fill="none" stroke="black" d="M143.35,-288.76C149.17,-277.46 156.89,-262.44 162.7,-251.15"/>
</g>
<!-- 0,9 -->
<g id="node4" class="node">
<title>0,9</title>
<ellipse fill="none" stroke="black" cx="27" cy="-162" rx="27" ry="18"/>
<text text-anchor="middle" x="27" y="-158.3" font-family="Times,serif" font-size="14.00">0,9</text>
</g>
<!-- 1,6&#45;&#45;0,9 -->
<g id="edge3" class="edge">
<title>1,6&#45;&#45;0,9</title>
<path fill="none" stroke="black" d="M84.43,-218.83C72.02,-206.77 54.27,-189.51 41.8,-177.38"/>
</g>
<!-- 2,99 -->
<g id="node5" class="node">
<title>2,99</title>
<ellipse fill="none" stroke="black" cx="99" cy="-162" rx="27" ry="18"/>
<text text-anchor="middle" x="99" y="-158.3" font-family="Times,serif" font-size="14.00">2,99</text>
</g>
<!-- 1,6&#45;&#45;2,99 -->
<g id="edge4" class="edge">
<title>1,6&#45;&#45;2,99</title>
<path fill="none" stroke="black" d="M99,-215.7C99,-204.85 99,-190.92 99,-180.1"/>
</g>
<!-- 4,14 -->
<g id="node6" class="node">
<title>4,14</title>
<ellipse fill="none" stroke="black" cx="171" cy="-162" rx="27" ry="18"/>
<text text-anchor="middle" x="171" y="-158.3" font-family="Times,serif" font-size="14.00">4,14</text>
</g>
<!-- 5,11&#45;&#45;4,14 -->
<g id="edge5" class="edge">
<title>5,11&#45;&#45;4,14</title>
<path fill="none" stroke="black" d="M171,-215.7C171,-204.85 171,-190.92 171,-180.1"/>
</g>
<!-- 9,17 -->
<g id="node7" class="node">
<title>9,17</title>
<ellipse fill="none" stroke="black" cx="243" cy="-162" rx="27" ry="18"/>
<text text-anchor="middle" x="243" y="-158.3" font-family="Times,serif" font-size="14.00">9,17</text>
</g>
<!-- 5,11&#45;&#45;9,17 -->
<g id="edge6" class="edge">
<title>5,11&#45;&#45;9,17</title>
<path fill="none" stroke="black" d="M185.57,-218.83C197.98,-206.77 215.73,-189.51 228.2,-177.38"/>
</g>
<!-- 7,22 -->
<g id="node8" class="node">
<title>7,22</title>
<ellipse fill="none" stroke="black" cx="243" cy="-90" rx="27" ry="18"/>
<text text-anchor="middle" x="243" y="-86.3" font-family="Times,serif" font-size="14.00">7,22</text>
</g>
<!-- 9,17&#45;&#45;7,22 -->
<g id="edge7" class="edge">
<title>9,17&#45;&#45;7,22</title>
<path fill="none" stroke="black" d="M243,-143.7C243,-132.85 243,-118.92 243,-108.1"/>
</g>
<!-- 6,42 -->
<g id="node9" class="node">
<title>6,42</title>
<ellipse fill="none" stroke="black" cx="207" cy="-18" rx="27" ry="18"/>
<text text-anchor="middle" x="207" y="-14.3" font-family="Times,serif" font-size="14.00">6,42</text>
</g>
<!-- 7,22&#45;&#45;6,42 -->
<g id="edge8" class="edge">
<title>7,22&#45;&#45;6,42</title>
<path fill="none" stroke="black" d="M234.65,-72.76C228.83,-61.46 221.11,-46.44 215.3,-35.15"/>
</g>
<!-- 8,49 -->
<g id="node10" class="node">
<title>8,49</title>
<ellipse fill="none" stroke="black" cx="279" cy="-18" rx="27" ry="18"/>
<text text-anchor="middle" x="279" y="-14.3" font-family="Times,serif" font-size="14.00">8,49</text>
</g>
<!-- 7,22&#45;&#45;8,49 -->
<g id="edge9" class="edge">
<title>7,22&#45;&#45;8,49</title>
<path fill="none" stroke="black" d="M251.35,-72.76C257.17,-61.46 264.89,-46.44 270.7,-35.15"/>
</g>
</g>
</svg>
