<?xml version="1.0" encoding="UTF-8" standalone="no"?>
<!DOCTYPE svg PUBLIC "-//W3C//DTD SVG 1.1//EN"
 "http://www.w3.org/Graphics/SVG/1.1/DTD/svg11.dtd">
<!-- Generated by graphviz version 7.1.0 (20230121.1956)
 -->
<!-- Title: mergesort Pages: 1 -->
<svg width="280pt" height="836pt"
 viewBox="0.00 0.00 280.13 836.00" xmlns="http://www.w3.org/2000/svg" xmlns:xlink="http://www.w3.org/1999/xlink">
<g id="graph0" class="graph" transform="scale(1 1) rotate(0) translate(4 832)">
<title>mergesort</title>
<polygon fill="white" stroke="none" points="-4,4 -4,-832 276.13,-832 276.13,4 -4,4"/>
<!-- OR2 -->
<g id="node1" class="node">
<title>OR2</title>
<ellipse fill="none" stroke="black" cx="50.13" cy="-450" rx="27" ry="18"/>
<text text-anchor="middle" x="50.13" y="-446.3" font-family="Times,serif" font-size="14.00">OR</text>
</g>
<!-- ORS -->
<g id="node15" class="node">
<title>ORS</title>
<ellipse fill="none" stroke="black" cx="50.13" cy="-378" rx="27.9" ry="18"/>
<text text-anchor="middle" x="50.13" y="-374.3" font-family="Times,serif" font-size="14.00">ORS</text>
</g>
<!-- OR2&#45;&gt;ORS -->
<g id="edge15" class="edge">
<title>OR2&#45;&gt;ORS</title>
<path fill="none" stroke="black" d="M50.13,-431.7C50.13,-424.41 50.13,-415.73 50.13,-407.54"/>
<polygon fill="black" stroke="black" points="53.63,-407.62 50.13,-397.62 46.63,-407.62 53.63,-407.62"/>
</g>
<!-- SORTING -->
<g id="node2" class="node">
<title>SORTING</title>
<ellipse fill="none" stroke="black" cx="127.13" cy="-810" rx="48.99" ry="18"/>
<text text-anchor="middle" x="127.13" y="-806.3" font-family="Times,serif" font-size="14.00">SORTING</text>
</g>
<!-- SOR -->
<g id="node3" class="node">
<title>SOR</title>
<ellipse fill="none" stroke="black" cx="99.13" cy="-738" rx="27.9" ry="18"/>
<text text-anchor="middle" x="99.13" y="-734.3" font-family="Times,serif" font-size="14.00">SOR</text>
</g>
<!-- SORTING&#45;&gt;SOR -->
<g id="edge1" class="edge">
<title>SORTING&#45;&gt;SOR</title>
<path fill="none" stroke="black" d="M120.21,-791.7C117.15,-784.04 113.47,-774.85 110.05,-766.3"/>
<polygon fill="black" stroke="black" points="113.3,-765.01 106.34,-757.03 106.81,-767.61 113.3,-765.01"/>
</g>
<!-- TING -->
<g id="node4" class="node">
<title>TING</title>
<ellipse fill="none" stroke="black" cx="159.13" cy="-594" rx="31.7" ry="18"/>
<text text-anchor="middle" x="159.13" y="-590.3" font-family="Times,serif" font-size="14.00">TING</text>
</g>
<!-- SORTING&#45;&gt;TING -->
<g id="edge2" class="edge">
<title>SORTING&#45;&gt;TING</title>
<path fill="none" stroke="black" d="M130.16,-791.83C131.96,-781.47 134.26,-767.99 136.13,-756 143.36,-709.74 150.87,-655.86 155.27,-623.64"/>
<polygon fill="black" stroke="black" points="158.71,-624.29 156.59,-613.91 151.78,-623.35 158.71,-624.29"/>
</g>
<!-- S -->
<g id="node5" class="node">
<title>S</title>
<ellipse fill="none" stroke="black" cx="27.13" cy="-666" rx="27" ry="18"/>
<text text-anchor="middle" x="27.13" y="-662.3" font-family="Times,serif" font-size="14.00">S</text>
</g>
<!-- SOR&#45;&gt;S -->
<g id="edge3" class="edge">
<title>SOR&#45;&gt;S</title>
<path fill="none" stroke="black" d="M84.21,-722.5C74.36,-712.92 61.27,-700.19 50.1,-689.34"/>
<polygon fill="black" stroke="black" points="52.72,-687 43.11,-682.54 47.84,-692.02 52.72,-687"/>
</g>
<!-- OR -->
<g id="node6" class="node">
<title>OR</title>
<ellipse fill="none" stroke="black" cx="99.13" cy="-666" rx="27" ry="18"/>
<text text-anchor="middle" x="99.13" y="-662.3" font-family="Times,serif" font-size="14.00">OR</text>
</g>
<!-- SOR&#45;&gt;OR -->
<g id="edge4" class="edge">
<title>SOR&#45;&gt;OR</title>
<path fill="none" stroke="black" d="M99.13,-719.7C99.13,-712.41 99.13,-703.73 99.13,-695.54"/>
<polygon fill="black" stroke="black" points="102.63,-695.62 99.13,-685.62 95.63,-695.62 102.63,-695.62"/>
</g>
<!-- TI -->
<g id="node7" class="node">
<title>TI</title>
<ellipse fill="none" stroke="black" cx="200.13" cy="-522" rx="27" ry="18"/>
<text text-anchor="middle" x="200.13" y="-518.3" font-family="Times,serif" font-size="14.00">TI</text>
</g>
<!-- TING&#45;&gt;TI -->
<g id="edge5" class="edge">
<title>TING&#45;&gt;TI</title>
<path fill="none" stroke="black" d="M168.85,-576.41C173.66,-568.19 179.59,-558.06 184.99,-548.85"/>
<polygon fill="black" stroke="black" points="187.97,-550.69 190,-540.29 181.93,-547.15 187.97,-550.69"/>
</g>
<!-- NG -->
<g id="node8" class="node">
<title>NG</title>
<ellipse fill="none" stroke="black" cx="128.13" cy="-378" rx="27" ry="18"/>
<text text-anchor="middle" x="128.13" y="-374.3" font-family="Times,serif" font-size="14.00">NG</text>
</g>
<!-- TING&#45;&gt;NG -->
<g id="edge6" class="edge">
<title>TING&#45;&gt;NG</title>
<path fill="none" stroke="black" d="M156.65,-575.85C151.33,-539.14 138.8,-452.66 132.26,-407.53"/>
<polygon fill="black" stroke="black" points="135.74,-407.13 130.84,-397.73 128.81,-408.13 135.74,-407.13"/>
</g>
<!-- O -->
<g id="node9" class="node">
<title>O</title>
<ellipse fill="none" stroke="black" cx="44.13" cy="-594" rx="27" ry="18"/>
<text text-anchor="middle" x="44.13" y="-590.3" font-family="Times,serif" font-size="14.00">O</text>
</g>
<!-- S&#45;&gt;O -->
<!-- S&#45;&gt;ORS -->
<g id="edge16" class="edge">
<title>S&#45;&gt;ORS</title>
<path fill="none" stroke="black" d="M19.63,-648.69C15.32,-638.41 10.34,-624.71 8.13,-612 0.54,-568.32 -7.6,-497.76 14.13,-432 17.53,-421.72 23.55,-411.59 29.7,-402.99"/>
<polygon fill="black" stroke="black" points="32.37,-405.27 35.66,-395.2 26.81,-401.02 32.37,-405.27"/>
</g>
<!-- OR&#45;&gt;O -->
<g id="edge7" class="edge">
<title>OR&#45;&gt;O</title>
<path fill="none" stroke="black" d="M86.92,-649.46C80.02,-640.67 71.22,-629.48 63.4,-619.53"/>
<polygon fill="black" stroke="black" points="66.17,-617.38 57.24,-611.68 60.66,-621.71 66.17,-617.38"/>
</g>
<!-- R -->
<g id="node10" class="node">
<title>R</title>
<ellipse fill="none" stroke="black" cx="90.13" cy="-522" rx="27" ry="18"/>
<text text-anchor="middle" x="90.13" y="-518.3" font-family="Times,serif" font-size="14.00">R</text>
</g>
<!-- OR&#45;&gt;R -->
<g id="edge8" class="edge">
<title>OR&#45;&gt;R</title>
<path fill="none" stroke="black" d="M98.03,-647.59C96.51,-623.61 93.75,-580.14 91.93,-551.42"/>
<polygon fill="black" stroke="black" points="95.44,-551.38 91.31,-541.62 88.45,-551.82 95.44,-551.38"/>
</g>
<!-- T -->
<g id="node11" class="node">
<title>T</title>
<ellipse fill="none" stroke="black" cx="200.13" cy="-450" rx="27" ry="18"/>
<text text-anchor="middle" x="200.13" y="-446.3" font-family="Times,serif" font-size="14.00">T</text>
</g>
<!-- TI&#45;&gt;T -->
<g id="edge9" class="edge">
<title>TI&#45;&gt;T</title>
<path fill="none" stroke="black" d="M200.13,-503.7C200.13,-496.41 200.13,-487.73 200.13,-479.54"/>
<polygon fill="black" stroke="black" points="203.63,-479.62 200.13,-469.62 196.63,-479.62 203.63,-479.62"/>
</g>
<!-- I -->
<g id="node12" class="node">
<title>I</title>
<ellipse fill="none" stroke="black" cx="200.13" cy="-378" rx="27" ry="18"/>
<text text-anchor="middle" x="200.13" y="-374.3" font-family="Times,serif" font-size="14.00">I</text>
</g>
<!-- TI&#45;&gt;I -->
<g id="edge10" class="edge">
<title>TI&#45;&gt;I</title>
<path fill="none" stroke="black" d="M213.88,-506.07C222.09,-496.1 231.75,-482.25 236.13,-468 240.83,-452.71 240.83,-447.29 236.13,-432 232.95,-421.65 226.98,-411.51 220.8,-402.91"/>
<polygon fill="black" stroke="black" points="223.68,-400.91 214.8,-395.13 218.14,-405.19 223.68,-400.91"/>
</g>
<!-- N -->
<g id="node13" class="node">
<title>N</title>
<ellipse fill="none" stroke="black" cx="173.13" cy="-306" rx="27" ry="18"/>
<text text-anchor="middle" x="173.13" y="-302.3" font-family="Times,serif" font-size="14.00">N</text>
</g>
<!-- NG&#45;&gt;N -->
<g id="edge11" class="edge">
<title>NG&#45;&gt;N</title>
<path fill="none" stroke="black" d="M138.34,-361.12C143.81,-352.61 150.67,-341.94 156.85,-332.32"/>
<polygon fill="black" stroke="black" points="159.68,-334.4 162.14,-324.09 153.79,-330.61 159.68,-334.4"/>
</g>
<!-- G -->
<g id="node14" class="node">
<title>G</title>
<ellipse fill="none" stroke="black" cx="118.13" cy="-234" rx="27" ry="18"/>
<text text-anchor="middle" x="118.13" y="-230.3" font-family="Times,serif" font-size="14.00">G</text>
</g>
<!-- NG&#45;&gt;G -->
<g id="edge12" class="edge">
<title>NG&#45;&gt;G</title>
<path fill="none" stroke="black" d="M126.9,-359.59C125.22,-335.61 122.15,-292.14 120.13,-263.42"/>
<polygon fill="black" stroke="black" points="123.63,-263.35 119.44,-253.62 116.65,-263.84 123.63,-263.35"/>
</g>
<!-- O&#45;&gt;OR2 -->
<g id="edge13" class="edge">
<title>O&#45;&gt;OR2</title>
<path fill="none" stroke="black" d="M44.87,-575.59C45.88,-551.61 47.72,-508.14 48.93,-479.42"/>
<polygon fill="black" stroke="black" points="52.42,-479.76 49.34,-469.62 45.42,-479.47 52.42,-479.76"/>
</g>
<!-- O&#45;&gt;R -->
<!-- R&#45;&gt;OR2 -->
<g id="edge14" class="edge">
<title>R&#45;&gt;OR2</title>
<path fill="none" stroke="black" d="M80.85,-504.76C76.16,-496.55 70.34,-486.37 65.04,-477.09"/>
<polygon fill="black" stroke="black" points="68.11,-475.41 60.11,-468.46 62.03,-478.88 68.11,-475.41"/>
</g>
<!-- R&#45;&gt;T -->
<!-- T&#45;&gt;I -->
<!-- IT -->
<g id="node16" class="node">
<title>IT</title>
<ellipse fill="none" stroke="black" cx="245.13" cy="-306" rx="27" ry="18"/>
<text text-anchor="middle" x="245.13" y="-302.3" font-family="Times,serif" font-size="14.00">IT</text>
</g>
<!-- T&#45;&gt;IT -->
<g id="edge17" class="edge">
<title>T&#45;&gt;IT</title>
<path fill="none" stroke="black" d="M213.39,-433.91C221.41,-423.87 231.04,-410.01 236.13,-396 243.16,-376.67 245.32,-353.52 245.78,-335.68"/>
<polygon fill="black" stroke="black" points="249.27,-335.82 245.84,-325.8 242.27,-335.77 249.27,-335.82"/>
</g>
<!-- I&#45;&gt;N -->
<!-- I&#45;&gt;IT -->
<g id="edge18" class="edge">
<title>I&#45;&gt;IT</title>
<path fill="none" stroke="black" d="M210.34,-361.12C215.81,-352.61 222.67,-341.94 228.85,-332.32"/>
<polygon fill="black" stroke="black" points="231.68,-334.4 234.14,-324.09 225.79,-330.61 231.68,-334.4"/>
</g>
<!-- N&#45;&gt;G -->
<!-- GN -->
<g id="node17" class="node">
<title>GN</title>
<ellipse fill="none" stroke="black" cx="156.13" cy="-162" rx="27" ry="18"/>
<text text-anchor="middle" x="156.13" y="-158.3" font-family="Times,serif" font-size="14.00">GN</text>
</g>
<!-- N&#45;&gt;GN -->
<g id="edge19" class="edge">
<title>N&#45;&gt;GN</title>
<path fill="none" stroke="black" d="M171.05,-287.59C168.17,-263.61 162.97,-220.14 159.53,-191.42"/>
<polygon fill="black" stroke="black" points="163.02,-191.13 158.36,-181.61 156.07,-191.96 163.02,-191.13"/>
</g>
<!-- G&#45;&gt;GN -->
<g id="edge20" class="edge">
<title>G&#45;&gt;GN</title>
<path fill="none" stroke="black" d="M126.94,-216.76C131.4,-208.55 136.93,-198.37 141.97,-189.09"/>
<polygon fill="black" stroke="black" points="144.95,-190.94 146.64,-180.48 138.79,-187.6 144.95,-190.94"/>
</g>
<!-- GINORST -->
<g id="node19" class="node">
<title>GINORST</title>
<ellipse fill="none" stroke="black" cx="105.13" cy="-18" rx="48.99" ry="18"/>
<text text-anchor="middle" x="105.13" y="-14.3" font-family="Times,serif" font-size="14.00">GINORST</text>
</g>
<!-- ORS&#45;&gt;GINORST -->
<g id="edge23" class="edge">
<title>ORS&#45;&gt;GINORST</title>
<path fill="none" stroke="black" d="M51.91,-359.97C54.53,-333.34 59.13,-280.21 59.13,-235 59.13,-235 59.13,-235 59.13,-161 59.13,-119.36 77.25,-74.06 90.74,-46.09"/>
<polygon fill="black" stroke="black" points="93.81,-47.78 95.15,-37.27 87.55,-44.65 93.81,-47.78"/>
</g>
<!-- GINT -->
<g id="node18" class="node">
<title>GINT</title>
<ellipse fill="none" stroke="black" cx="156.13" cy="-90" rx="31.7" ry="18"/>
<text text-anchor="middle" x="156.13" y="-86.3" font-family="Times,serif" font-size="14.00">GINT</text>
</g>
<!-- IT&#45;&gt;GINT -->
<g id="edge21" class="edge">
<title>IT&#45;&gt;GINT</title>
<path fill="none" stroke="black" d="M241.19,-287.94C233.87,-257.87 216.69,-193.9 192.13,-144 187.47,-134.53 181.32,-124.8 175.42,-116.3"/>
<polygon fill="black" stroke="black" points="178.29,-114.29 169.61,-108.21 172.6,-118.38 178.29,-114.29"/>
</g>
<!-- GN&#45;&gt;GINT -->
<g id="edge22" class="edge">
<title>GN&#45;&gt;GINT</title>
<path fill="none" stroke="black" d="M156.13,-143.7C156.13,-136.41 156.13,-127.73 156.13,-119.54"/>
<polygon fill="black" stroke="black" points="159.63,-119.62 156.13,-109.62 152.63,-119.62 159.63,-119.62"/>
</g>
<!-- GINT&#45;&gt;GINORST -->
<g id="edge24" class="edge">
<title>GINT&#45;&gt;GINORST</title>
<path fill="none" stroke="black" d="M144.56,-73.12C138.47,-64.77 130.86,-54.32 123.96,-44.84"/>
<polygon fill="black" stroke="black" points="126.98,-43.04 118.26,-37.02 121.32,-47.16 126.98,-43.04"/>
</g>
</g>
</svg>
