<?xml version="1.0" encoding="UTF-8" standalone="no"?>
<!DOCTYPE svg PUBLIC "-//W3C//DTD SVG 1.1//EN"
 "http://www.w3.org/Graphics/SVG/1.1/DTD/svg11.dtd">
<!-- Generated by graphviz version 7.1.0 (20230121.1956)
 -->
<!-- Pages: 1 -->
<svg width="437pt" height="404pt"
 viewBox="0.00 0.00 437.00 404.00" xmlns="http://www.w3.org/2000/svg" xmlns:xlink="http://www.w3.org/1999/xlink">
<g id="graph0" class="graph" transform="scale(1 1) rotate(0) translate(4 400)">
<polygon fill="white" stroke="none" points="-4,4 -4,-400 433,-400 433,4 -4,4"/>
<!-- Q -->
<g id="node1" class="node">
<title>Q</title>
<polygon fill="lightgrey" stroke="none" points="270,-180 216,-180 216,-144 270,-144 270,-180"/>
<text text-anchor="middle" x="243" y="-158.3" font-family="Times,serif" font-size="14.00">Q</text>
</g>
<!-- U -->
<g id="node2" class="node">
<title>U</title>
<polygon fill="lightgrey" stroke="none" points="429,-324 375,-324 375,-288 429,-288 429,-324"/>
<text text-anchor="middle" x="402" y="-302.3" font-family="Times,serif" font-size="14.00">U</text>
</g>
<!-- I -->
<g id="node3" class="node">
<title>I</title>
<polygon fill="lightgrey" stroke="none" points="126,-36 72,-36 72,0 126,0 126,-36"/>
<text text-anchor="middle" x="99" y="-14.3" font-family="Times,serif" font-size="14.00">I</text>
</g>
<!-- C -->
<g id="node4" class="node">
<title>C</title>
<polygon fill="lightgrey" stroke="none" points="54,-36 0,-36 0,0 54,0 54,-36"/>
<text text-anchor="middle" x="27" y="-14.3" font-family="Times,serif" font-size="14.00">C</text>
</g>
<!-- C&#45;&gt;I -->
<!-- K -->
<g id="node5" class="node">
<title>K</title>
<polygon fill="lightgrey" stroke="none" points="162,-108 108,-108 108,-72 162,-72 162,-108"/>
<text text-anchor="middle" x="135" y="-86.3" font-family="Times,serif" font-size="14.00">K</text>
</g>
<!-- S -->
<g id="node6" class="node">
<title>S</title>
<polygon fill="lightgrey" stroke="none" points="345,-252 291,-252 291,-216 345,-216 345,-252"/>
<text text-anchor="middle" x="318" y="-230.3" font-family="Times,serif" font-size="14.00">S</text>
</g>
<!-- O -->
<g id="node7" class="node">
<title>O</title>
<polygon fill="lightgrey" stroke="none" points="198,-180 144,-180 144,-144 198,-144 198,-180"/>
<text text-anchor="middle" x="171" y="-158.3" font-family="Times,serif" font-size="14.00">O</text>
</g>
<!-- O&#45;&gt;Q -->
<!-- R -->
<g id="node8" class="node">
<title>R</title>
<polygon fill="lightgrey" stroke="none" points="273,-252 219,-252 219,-216 273,-216 273,-252"/>
<text text-anchor="middle" x="246" y="-230.3" font-family="Times,serif" font-size="14.00">R</text>
</g>
<!-- R&#45;&gt;S -->
<!-- T -->
<g id="node9" class="node">
<title>T</title>
<polygon fill="lightgrey" stroke="none" points="357,-324 303,-324 303,-288 357,-288 357,-324"/>
<text text-anchor="middle" x="330" y="-302.3" font-family="Times,serif" font-size="14.00">T</text>
</g>
<!-- T&#45;&gt;U -->
<!-- QUICKSORT -->
<g id="node10" class="node">
<title>QUICKSORT</title>
<text text-anchor="start" x="290.5" y="-375.3" font-family="Times,serif" font-size="14.00">QUICKSOR</text>
<text text-anchor="start" x="360.5" y="-375.3" font-family="Times,serif" text-decoration="underline" font-size="14.00">T</text>
</g>
<!-- QUICKSORT&#45;&gt;U -->
<g id="edge1" class="edge">
<title>QUICKSORT&#45;&gt;U</title>
<path fill="none" stroke="black" d="M347.43,-360.05C356.18,-351.54 366.96,-341.07 376.61,-331.68"/>
<polygon fill="black" stroke="black" points="378.92,-334.32 383.65,-324.84 374.04,-329.31 378.92,-334.32"/>
</g>
<!-- QUICKSORT&#45;&gt;T -->
<g id="edge2" class="edge">
<title>QUICKSORT&#45;&gt;T</title>
<path fill="none" stroke="black" d="M330,-360.05C330,-352.57 330,-343.58 330,-335.14"/>
<polygon fill="black" stroke="black" points="333.5,-335.3 330,-325.3 326.5,-335.3 333.5,-335.3"/>
</g>
<!-- QICKSOR -->
<g id="node11" class="node">
<title>QICKSOR</title>
<text text-anchor="start" x="215.5" y="-303.3" font-family="Times,serif" font-size="14.00">QICKSO</text>
<text text-anchor="start" x="266.5" y="-303.3" font-family="Times,serif" text-decoration="underline" font-size="14.00">R</text>
</g>
<!-- QUICKSORT&#45;&gt;QICKSOR -->
<g id="edge3" class="edge">
<title>QUICKSORT&#45;&gt;QICKSOR</title>
<path fill="none" stroke="black" d="M309.67,-360.05C299.24,-351.37 286.37,-340.64 274.94,-331.11"/>
<polygon fill="black" stroke="black" points="277.23,-328.47 267.31,-324.76 272.75,-333.85 277.23,-328.47"/>
</g>
<!-- QICKSOR&#45;&gt;S -->
<g id="edge4" class="edge">
<title>QICKSOR&#45;&gt;S</title>
<path fill="none" stroke="black" d="M263.43,-288.05C272.18,-279.54 282.96,-269.07 292.61,-259.68"/>
<polygon fill="black" stroke="black" points="294.92,-262.32 299.65,-252.84 290.04,-257.31 294.92,-262.32"/>
</g>
<!-- QICKSOR&#45;&gt;R -->
<g id="edge5" class="edge">
<title>QICKSOR&#45;&gt;R</title>
<path fill="none" stroke="black" d="M246,-288.05C246,-280.57 246,-271.58 246,-263.14"/>
<polygon fill="black" stroke="black" points="249.5,-263.3 246,-253.3 242.5,-263.3 249.5,-263.3"/>
</g>
<!-- QICKSOR&#45;&gt;T -->
<!-- QICKO -->
<g id="node12" class="node">
<title>QICKO</title>
<text text-anchor="start" x="149" y="-231.3" font-family="Times,serif" font-size="14.00">QICK</text>
<text text-anchor="start" x="183" y="-231.3" font-family="Times,serif" text-decoration="underline" font-size="14.00">O</text>
</g>
<!-- QICKSOR&#45;&gt;QICKO -->
<g id="edge6" class="edge">
<title>QICKSOR&#45;&gt;QICKO</title>
<path fill="none" stroke="black" d="M227.84,-288.05C218.63,-279.46 207.27,-268.86 197.14,-259.4"/>
<polygon fill="black" stroke="black" points="199.79,-257.09 190.09,-252.82 195.02,-262.2 199.79,-257.09"/>
</g>
<!-- QICKO&#45;&gt;Q -->
<g id="edge7" class="edge">
<title>QICKO&#45;&gt;Q</title>
<path fill="none" stroke="black" d="M188.43,-216.05C197.18,-207.54 207.96,-197.07 217.61,-187.68"/>
<polygon fill="black" stroke="black" points="219.92,-190.32 224.65,-180.84 215.04,-185.31 219.92,-190.32"/>
</g>
<!-- QICKO&#45;&gt;O -->
<g id="edge8" class="edge">
<title>QICKO&#45;&gt;O</title>
<path fill="none" stroke="black" d="M171,-216.05C171,-208.57 171,-199.58 171,-191.14"/>
<polygon fill="black" stroke="black" points="174.5,-191.3 171,-181.3 167.5,-191.3 174.5,-191.3"/>
</g>
<!-- QICKO&#45;&gt;R -->
<!-- ICK -->
<g id="node13" class="node">
<title>ICK</title>
<text text-anchor="start" x="87" y="-159.3" font-family="Times,serif" font-size="14.00">IC</text>
<text text-anchor="start" x="101" y="-159.3" font-family="Times,serif" text-decoration="underline" font-size="14.00">K</text>
</g>
<!-- QICKO&#45;&gt;ICK -->
<g id="edge9" class="edge">
<title>QICKO&#45;&gt;ICK</title>
<path fill="none" stroke="black" d="M153.57,-216.05C144.82,-207.54 134.04,-197.07 124.39,-187.68"/>
<polygon fill="black" stroke="black" points="126.96,-185.31 117.35,-180.84 122.08,-190.32 126.96,-185.31"/>
</g>
<!-- ICK&#45;&gt;K -->
<g id="edge10" class="edge">
<title>ICK&#45;&gt;K</title>
<path fill="none" stroke="black" d="M107.71,-144.05C111.74,-136.23 116.62,-126.75 121.13,-117.98"/>
<polygon fill="black" stroke="black" points="124.21,-119.63 125.67,-109.13 117.99,-116.43 124.21,-119.63"/>
</g>
<!-- ICK&#45;&gt;O -->
<!-- IC -->
<g id="node14" class="node">
<title>IC</title>
<text text-anchor="start" x="55.5" y="-87.3" font-family="Times,serif" font-size="14.00">I</text>
<text text-anchor="start" x="60.5" y="-87.3" font-family="Times,serif" text-decoration="underline" font-size="14.00">C</text>
</g>
<!-- ICK&#45;&gt;IC -->
<g id="edge11" class="edge">
<title>ICK&#45;&gt;IC</title>
<path fill="none" stroke="black" d="M90.29,-144.05C86.26,-136.23 81.38,-126.75 76.87,-117.98"/>
<polygon fill="black" stroke="black" points="80.01,-116.43 72.33,-109.13 73.79,-119.63 80.01,-116.43"/>
</g>
<!-- IC&#45;&gt;I -->
<g id="edge12" class="edge">
<title>IC&#45;&gt;I</title>
<path fill="none" stroke="black" d="M71.71,-72.05C75.74,-64.23 80.62,-54.75 85.13,-45.98"/>
<polygon fill="black" stroke="black" points="88.21,-47.63 89.67,-37.13 81.99,-44.43 88.21,-47.63"/>
</g>
<!-- IC&#45;&gt;C -->
<g id="edge13" class="edge">
<title>IC&#45;&gt;C</title>
<path fill="none" stroke="black" d="M54.29,-72.05C50.26,-64.23 45.38,-54.75 40.87,-45.98"/>
<polygon fill="black" stroke="black" points="44.01,-44.43 36.33,-37.13 37.79,-47.63 44.01,-44.43"/>
</g>
<!-- IC&#45;&gt;K -->
</g>
</svg>
