<?xml version="1.0" encoding="UTF-8" standalone="no"?>
<!DOCTYPE svg PUBLIC "-//W3C//DTD SVG 1.1//EN"
 "http://www.w3.org/Graphics/SVG/1.1/DTD/svg11.dtd">
<!-- Generated by graphviz version 7.1.0 (20230121.1956)
 -->
<!-- Pages: 1 -->
<svg width="479pt" height="332pt"
 viewBox="0.00 0.00 479.00 332.00" xmlns="http://www.w3.org/2000/svg" xmlns:xlink="http://www.w3.org/1999/xlink">
<g id="graph0" class="graph" transform="scale(1 1) rotate(0) translate(4 328)">
<polygon fill="white" stroke="none" points="-4,4 -4,-328 475,-328 475,4 -4,4"/>
<!-- LP -->
<g id="node1" class="node">
<title>LP</title>
<polygon fill="none" stroke="black" points="167,-252 91,-252 91,-216 167,-216 167,-252"/>
<text text-anchor="middle" x="129" y="-230.3" font-family="Times,serif" font-size="14.00">Lower Pen</text>
</g>
<!-- Inner -->
<g id="node7" class="node">
<title>Inner</title>
<polygon fill="none" stroke="black" points="55,-180 1,-180 1,-144 55,-144 55,-180"/>
<text text-anchor="middle" x="28" y="-158.3" font-family="Times,serif" font-size="14.00">Inner</text>
</g>
<!-- LP&#45;&gt;Inner -->
<g id="edge4" class="edge">
<title>LP&#45;&gt;Inner</title>
<path fill="none" stroke="black" d="M103.77,-215.52C88.23,-204.74 68.39,-190.99 52.9,-180.26"/>
</g>
<!-- Point -->
<g id="node8" class="node">
<title>Point</title>
<polygon fill="none" stroke="black" points="127,-180 73,-180 73,-144 127,-144 127,-180"/>
<text text-anchor="middle" x="100" y="-158.3" font-family="Times,serif" font-size="14.00">Point</text>
</g>
<!-- LP&#45;&gt;Point -->
<g id="edge5" class="edge">
<title>LP&#45;&gt;Point</title>
<path fill="none" stroke="black" d="M121.83,-215.7C117.34,-204.85 111.57,-190.92 107.09,-180.1"/>
</g>
<!-- Outer -->
<g id="node9" class="node">
<title>Outer</title>
<polygon fill="none" stroke="black" points="199,-180 145,-180 145,-144 199,-144 199,-180"/>
<text text-anchor="middle" x="172" y="-158.3" font-family="Times,serif" font-size="14.00">Outer</text>
</g>
<!-- LP&#45;&gt;Outer -->
<g id="edge6" class="edge">
<title>LP&#45;&gt;Outer</title>
<path fill="none" stroke="black" d="M139.63,-215.7C146.29,-204.85 154.85,-190.92 161.49,-180.1"/>
</g>
<!-- UB -->
<g id="node2" class="node">
<title>UB</title>
<polygon fill="none" stroke="black" points="302,-252 214,-252 214,-216 302,-216 302,-252"/>
<text text-anchor="middle" x="258" y="-230.3" font-family="Times,serif" font-size="14.00">Upper Barrel</text>
</g>
<!-- Sleeve -->
<g id="node10" class="node">
<title>Sleeve</title>
<polygon fill="none" stroke="black" points="285,-180 231,-180 231,-144 285,-144 285,-180"/>
<text text-anchor="middle" x="258" y="-158.3" font-family="Times,serif" font-size="14.00">Sleeve</text>
</g>
<!-- UB&#45;&gt;Sleeve -->
<g id="edge9" class="edge">
<title>UB&#45;&gt;Sleeve</title>
<path fill="none" stroke="black" d="M258,-215.7C258,-204.85 258,-190.92 258,-180.1"/>
</g>
<!-- Clip -->
<g id="node11" class="node">
<title>Clip</title>
<polygon fill="none" stroke="black" points="365,-180 311,-180 311,-144 365,-144 365,-180"/>
<text text-anchor="middle" x="338" y="-158.3" font-family="Times,serif" font-size="14.00">Clip</text>
</g>
<!-- UB&#45;&gt;Clip -->
<g id="edge10" class="edge">
<title>UB&#45;&gt;Clip</title>
<path fill="none" stroke="black" d="M277.78,-215.7C290.08,-204.93 305.86,-191.12 318.17,-180.35"/>
</g>
<!-- T1 -->
<g id="node3" class="node">
<title>T1</title>
<polygon fill="none" stroke="black" points="56,-108 0,-108 0,-72 56,-72 56,-108"/>
<text text-anchor="middle" x="28" y="-86.3" font-family="Times,serif" font-size="14.00">Tubing</text>
</g>
<!-- T2 -->
<g id="node4" class="node">
<title>T2</title>
<polygon fill="none" stroke="black" points="164,-108 108,-108 108,-72 164,-72 164,-108"/>
<text text-anchor="middle" x="136" y="-86.3" font-family="Times,serif" font-size="14.00">Tubing</text>
</g>
<!-- Pen -->
<g id="node5" class="node">
<title>Pen</title>
<polygon fill="none" stroke="black" points="285,-324 231,-324 231,-288 285,-288 285,-324"/>
<text text-anchor="middle" x="258" y="-302.3" font-family="Times,serif" font-size="14.00">Pen</text>
</g>
<!-- Pen&#45;&gt;LP -->
<g id="edge1" class="edge">
<title>Pen&#45;&gt;LP</title>
<path fill="none" stroke="black" d="M230.64,-290.15C210.23,-279.08 182.29,-263.92 160.87,-252.29"/>
</g>
<!-- Pen&#45;&gt;UB -->
<g id="edge2" class="edge">
<title>Pen&#45;&gt;UB</title>
<path fill="none" stroke="black" d="M258,-287.7C258,-276.85 258,-262.92 258,-252.1"/>
</g>
<!-- Ink -->
<g id="node6" class="node">
<title>Ink</title>
<polygon fill="none" stroke="black" points="374,-252 320,-252 320,-216 374,-216 374,-252"/>
<text text-anchor="middle" x="347" y="-230.3" font-family="Times,serif" font-size="14.00">Ink</text>
</g>
<!-- Pen&#45;&gt;Ink -->
<g id="edge3" class="edge">
<title>Pen&#45;&gt;Ink</title>
<path fill="none" stroke="black" d="M280,-287.7C293.69,-276.93 311.24,-263.12 324.94,-252.35"/>
</g>
<!-- Inner&#45;&gt;T1 -->
<g id="edge7" class="edge">
<title>Inner&#45;&gt;T1</title>
<path fill="none" stroke="black" d="M28,-143.7C28,-132.85 28,-118.92 28,-108.1"/>
</g>
<!-- Outer&#45;&gt;T2 -->
<g id="edge8" class="edge">
<title>Outer&#45;&gt;T2</title>
<path fill="none" stroke="black" d="M163.1,-143.7C157.52,-132.85 150.36,-118.92 144.8,-108.1"/>
</g>
<!-- Top -->
<g id="node12" class="node">
<title>Top</title>
<polygon fill="none" stroke="black" points="236,-108 182,-108 182,-72 236,-72 236,-108"/>
<text text-anchor="middle" x="209" y="-86.3" font-family="Times,serif" font-size="14.00">Top</text>
</g>
<!-- Sleeve&#45;&gt;Top -->
<g id="edge11" class="edge">
<title>Sleeve&#45;&gt;Top</title>
<path fill="none" stroke="black" d="M245.89,-143.7C238.29,-132.85 228.54,-118.92 220.97,-108.1"/>
</g>
<!-- Tube -->
<g id="node13" class="node">
<title>Tube</title>
<polygon fill="none" stroke="black" points="308,-108 254,-108 254,-72 308,-72 308,-108"/>
<text text-anchor="middle" x="281" y="-86.3" font-family="Times,serif" font-size="14.00">Tube</text>
</g>
<!-- Sleeve&#45;&gt;Tube -->
<g id="edge12" class="edge">
<title>Sleeve&#45;&gt;Tube</title>
<path fill="none" stroke="black" d="M263.69,-143.7C267.25,-132.85 271.83,-118.92 275.38,-108.1"/>
</g>
<!-- Steel -->
<g id="node15" class="node">
<title>Steel</title>
<polygon fill="none" stroke="black" points="380,-108 326,-108 326,-72 380,-72 380,-108"/>
<text text-anchor="middle" x="353" y="-86.3" font-family="Times,serif" font-size="14.00">Steel</text>
</g>
<!-- Clip&#45;&gt;Steel -->
<g id="edge14" class="edge">
<title>Clip&#45;&gt;Steel</title>
<path fill="none" stroke="black" d="M341.71,-143.7C344.03,-132.85 347.02,-118.92 349.33,-108.1"/>
</g>
<!-- Tubing -->
<g id="node14" class="node">
<title>Tubing</title>
<polygon fill="none" stroke="black" points="309,-36 253,-36 253,0 309,0 309,-36"/>
<text text-anchor="middle" x="281" y="-14.3" font-family="Times,serif" font-size="14.00">Tubing</text>
</g>
<!-- Tube&#45;&gt;Tubing -->
<g id="edge13" class="edge">
<title>Tube&#45;&gt;Tubing</title>
<path fill="none" stroke="black" d="M281,-71.7C281,-60.85 281,-46.92 281,-36.1"/>
</g>
<!-- L0 -->
<g id="node16" class="node">
<title>L0</title>
<text text-anchor="middle" x="442" y="-302.3" font-family="Times,serif" font-size="14.00">Level 0</text>
</g>
<!-- L1 -->
<g id="node17" class="node">
<title>L1</title>
<text text-anchor="middle" x="442" y="-230.3" font-family="Times,serif" font-size="14.00">Level 1</text>
</g>
<!-- L0&#45;&gt;L1 -->
<!-- L2 -->
<g id="node18" class="node">
<title>L2</title>
<text text-anchor="middle" x="442" y="-158.3" font-family="Times,serif" font-size="14.00">Level 2</text>
</g>
<!-- L1&#45;&gt;L2 -->
<!-- L3 -->
<g id="node19" class="node">
<title>L3</title>
<text text-anchor="middle" x="442" y="-86.3" font-family="Times,serif" font-size="14.00">Level 3</text>
</g>
<!-- L2&#45;&gt;L3 -->
<!-- L4 -->
<g id="node20" class="node">
<title>L4</title>
<text text-anchor="middle" x="442" y="-14.3" font-family="Times,serif" font-size="14.00">Level 4</text>
</g>
<!-- L3&#45;&gt;L4 -->
</g>
</svg>
