<?xml version="1.0" encoding="UTF-8" standalone="no"?>
<!DOCTYPE svg PUBLIC "-//W3C//DTD SVG 1.1//EN"
 "http://www.w3.org/Graphics/SVG/1.1/DTD/svg11.dtd">
<!-- Generated by graphviz version 6.0.1 (20220911.1526)
 -->
<!-- Title: mergesort Pages: 1 -->
<svg width="280pt" height="836pt"
 viewBox="0.00 0.00 280.13 836.00" xmlns="http://www.w3.org/2000/svg" xmlns:xlink="http://www.w3.org/1999/xlink">
<g id="graph0" class="graph" transform="scale(1 1) rotate(0) translate(4 832)">
<title>mergesort</title>
<polygon fill="white" stroke="none" points="-4,4 -4,-832 276.13,-832 276.13,4 -4,4"/>
<!-- OR2 -->
<g id="node1" class="node">
<title>OR2</title>
<ellipse fill="none" stroke="black" cx="50.13" cy="-450" rx="27" ry="18"/>
<text text-anchor="middle" x="50.13" y="-446.3" font-family="Times,serif" font-size="14.00">OR</text>
</g>
<!-- ORS -->
<g id="node15" class="node">
<title>ORS</title>
<ellipse fill="none" stroke="black" cx="50.13" cy="-378" rx="27.9" ry="18"/>
<text text-anchor="middle" x="50.13" y="-374.3" font-family="Times,serif" font-size="14.00">ORS</text>
</g>
<!-- OR2&#45;&gt;ORS -->
<g id="edge15" class="edge">
<title>OR2&#45;&gt;ORS</title>
<path fill="none" stroke="black" d="M50.13,-431.7C50.13,-423.98 50.13,-414.71 50.13,-406.11"/>
<polygon fill="black" stroke="black" points="53.63,-406.1 50.13,-396.1 46.63,-406.1 53.63,-406.1"/>
</g>
<!-- SORTING -->
<g id="node2" class="node">
<title>SORTING</title>
<ellipse fill="none" stroke="black" cx="127.13" cy="-810" rx="48.99" ry="18"/>
<text text-anchor="middle" x="127.13" y="-806.3" font-family="Times,serif" font-size="14.00">SORTING</text>
</g>
<!-- SOR -->
<g id="node3" class="node">
<title>SOR</title>
<ellipse fill="none" stroke="black" cx="99.13" cy="-738" rx="27.9" ry="18"/>
<text text-anchor="middle" x="99.13" y="-734.3" font-family="Times,serif" font-size="14.00">SOR</text>
</g>
<!-- SORTING&#45;&gt;SOR -->
<g id="edge1" class="edge">
<title>SORTING&#45;&gt;SOR</title>
<path fill="none" stroke="black" d="M120.35,-792.05C117.12,-783.97 113.18,-774.12 109.57,-765.11"/>
<polygon fill="black" stroke="black" points="112.81,-763.77 105.85,-755.79 106.31,-766.37 112.81,-763.77"/>
</g>
<!-- TING -->
<g id="node4" class="node">
<title>TING</title>
<ellipse fill="none" stroke="black" cx="159.13" cy="-594" rx="31.7" ry="18"/>
<text text-anchor="middle" x="159.13" y="-590.3" font-family="Times,serif" font-size="14.00">TING</text>
</g>
<!-- SORTING&#45;&gt;TING -->
<g id="edge2" class="edge">
<title>SORTING&#45;&gt;TING</title>
<path fill="none" stroke="black" d="M130.16,-791.83C131.96,-781.47 134.26,-767.99 136.13,-756 143.46,-709.13 151.07,-654.44 155.44,-622.38"/>
<polygon fill="black" stroke="black" points="158.92,-622.79 156.79,-612.41 151.98,-621.85 158.92,-622.79"/>
</g>
<!-- S -->
<g id="node5" class="node">
<title>S</title>
<ellipse fill="none" stroke="black" cx="27.13" cy="-666" rx="27" ry="18"/>
<text text-anchor="middle" x="27.13" y="-662.3" font-family="Times,serif" font-size="14.00">S</text>
</g>
<!-- SOR&#45;&gt;S -->
<g id="edge3" class="edge">
<title>SOR&#45;&gt;S</title>
<path fill="none" stroke="black" d="M84.21,-722.5C74.17,-712.73 60.75,-699.69 49.45,-688.7"/>
<polygon fill="black" stroke="black" points="51.64,-685.95 42.03,-681.49 46.76,-690.97 51.64,-685.95"/>
</g>
<!-- OR -->
<g id="node6" class="node">
<title>OR</title>
<ellipse fill="none" stroke="black" cx="99.13" cy="-666" rx="27" ry="18"/>
<text text-anchor="middle" x="99.13" y="-662.3" font-family="Times,serif" font-size="14.00">OR</text>
</g>
<!-- SOR&#45;&gt;OR -->
<g id="edge4" class="edge">
<title>SOR&#45;&gt;OR</title>
<path fill="none" stroke="black" d="M99.13,-719.7C99.13,-711.98 99.13,-702.71 99.13,-694.11"/>
<polygon fill="black" stroke="black" points="102.63,-694.1 99.13,-684.1 95.63,-694.1 102.63,-694.1"/>
</g>
<!-- TI -->
<g id="node7" class="node">
<title>TI</title>
<ellipse fill="none" stroke="black" cx="200.13" cy="-522" rx="27" ry="18"/>
<text text-anchor="middle" x="200.13" y="-518.3" font-family="Times,serif" font-size="14.00">TI</text>
</g>
<!-- TING&#45;&gt;TI -->
<g id="edge5" class="edge">
<title>TING&#45;&gt;TI</title>
<path fill="none" stroke="black" d="M168.64,-576.76C173.66,-568.19 179.93,-557.49 185.55,-547.9"/>
<polygon fill="black" stroke="black" points="188.64,-549.55 190.67,-539.15 182.6,-546.01 188.64,-549.55"/>
</g>
<!-- NG -->
<g id="node8" class="node">
<title>NG</title>
<ellipse fill="none" stroke="black" cx="128.13" cy="-378" rx="27" ry="18"/>
<text text-anchor="middle" x="128.13" y="-374.3" font-family="Times,serif" font-size="14.00">NG</text>
</g>
<!-- TING&#45;&gt;NG -->
<g id="edge6" class="edge">
<title>TING&#45;&gt;NG</title>
<path fill="none" stroke="black" d="M156.65,-575.85C151.27,-538.74 138.52,-450.75 132.05,-406.05"/>
<polygon fill="black" stroke="black" points="135.48,-405.33 130.58,-395.94 128.55,-406.33 135.48,-405.33"/>
</g>
<!-- O -->
<g id="node9" class="node">
<title>O</title>
<ellipse fill="none" stroke="black" cx="44.13" cy="-594" rx="27" ry="18"/>
<text text-anchor="middle" x="44.13" y="-590.3" font-family="Times,serif" font-size="14.00">O</text>
</g>
<!-- S&#45;&gt;O -->
<!-- S&#45;&gt;ORS -->
<g id="edge16" class="edge">
<title>S&#45;&gt;ORS</title>
<path fill="none" stroke="black" d="M19.63,-648.69C15.32,-638.41 10.34,-624.71 8.13,-612 0.54,-568.32 -7.6,-497.76 14.13,-432 17.64,-421.39 23.94,-410.94 30.3,-402.16"/>
<polygon fill="black" stroke="black" points="33.26,-404.06 36.58,-394 27.71,-399.79 33.26,-404.06"/>
</g>
<!-- OR&#45;&gt;O -->
<g id="edge7" class="edge">
<title>OR&#45;&gt;O</title>
<path fill="none" stroke="black" d="M87.2,-649.81C79.92,-640.55 70.47,-628.52 62.28,-618.09"/>
<polygon fill="black" stroke="black" points="64.97,-615.86 56.04,-610.16 59.47,-620.18 64.97,-615.86"/>
</g>
<!-- R -->
<g id="node10" class="node">
<title>R</title>
<ellipse fill="none" stroke="black" cx="90.13" cy="-522" rx="27" ry="18"/>
<text text-anchor="middle" x="90.13" y="-518.3" font-family="Times,serif" font-size="14.00">R</text>
</g>
<!-- OR&#45;&gt;R -->
<g id="edge8" class="edge">
<title>OR&#45;&gt;R</title>
<path fill="none" stroke="black" d="M98.04,-647.87C96.51,-623.67 93.69,-579.21 91.87,-550.39"/>
<polygon fill="black" stroke="black" points="95.34,-549.95 91.22,-540.19 88.36,-550.39 95.34,-549.95"/>
</g>
<!-- T -->
<g id="node11" class="node">
<title>T</title>
<ellipse fill="none" stroke="black" cx="200.13" cy="-450" rx="27" ry="18"/>
<text text-anchor="middle" x="200.13" y="-446.3" font-family="Times,serif" font-size="14.00">T</text>
</g>
<!-- TI&#45;&gt;T -->
<g id="edge9" class="edge">
<title>TI&#45;&gt;T</title>
<path fill="none" stroke="black" d="M200.13,-503.7C200.13,-495.98 200.13,-486.71 200.13,-478.11"/>
<polygon fill="black" stroke="black" points="203.63,-478.1 200.13,-468.1 196.63,-478.1 203.63,-478.1"/>
</g>
<!-- I -->
<g id="node12" class="node">
<title>I</title>
<ellipse fill="none" stroke="black" cx="200.13" cy="-378" rx="27" ry="18"/>
<text text-anchor="middle" x="200.13" y="-374.3" font-family="Times,serif" font-size="14.00">I</text>
</g>
<!-- TI&#45;&gt;I -->
<g id="edge10" class="edge">
<title>TI&#45;&gt;I</title>
<path fill="none" stroke="black" d="M213.88,-506.07C222.09,-496.1 231.75,-482.25 236.13,-468 240.83,-452.71 240.83,-447.29 236.13,-432 232.84,-421.31 226.59,-410.85 220.2,-402.08"/>
<polygon fill="black" stroke="black" points="222.78,-399.69 213.88,-393.93 217.25,-403.98 222.78,-399.69"/>
</g>
<!-- N -->
<g id="node13" class="node">
<title>N</title>
<ellipse fill="none" stroke="black" cx="173.13" cy="-306" rx="27" ry="18"/>
<text text-anchor="middle" x="173.13" y="-302.3" font-family="Times,serif" font-size="14.00">N</text>
</g>
<!-- NG&#45;&gt;N -->
<g id="edge11" class="edge">
<title>NG&#45;&gt;N</title>
<path fill="none" stroke="black" d="M138.34,-361.12C143.98,-352.34 151.1,-341.26 157.43,-331.42"/>
<polygon fill="black" stroke="black" points="160.5,-333.13 162.96,-322.82 154.61,-329.34 160.5,-333.13"/>
</g>
<!-- G -->
<g id="node14" class="node">
<title>G</title>
<ellipse fill="none" stroke="black" cx="118.13" cy="-234" rx="27" ry="18"/>
<text text-anchor="middle" x="118.13" y="-230.3" font-family="Times,serif" font-size="14.00">G</text>
</g>
<!-- NG&#45;&gt;G -->
<g id="edge12" class="edge">
<title>NG&#45;&gt;G</title>
<path fill="none" stroke="black" d="M126.92,-359.87C125.22,-335.67 122.09,-291.21 120.06,-262.39"/>
<polygon fill="black" stroke="black" points="123.53,-261.92 119.34,-252.19 116.55,-262.41 123.53,-261.92"/>
</g>
<!-- O&#45;&gt;OR2 -->
<g id="edge13" class="edge">
<title>O&#45;&gt;OR2</title>
<path fill="none" stroke="black" d="M44.85,-575.87C45.88,-551.67 47.75,-507.21 48.97,-478.39"/>
<polygon fill="black" stroke="black" points="52.48,-478.33 49.4,-468.19 45.48,-478.03 52.48,-478.33"/>
</g>
<!-- O&#45;&gt;R -->
<!-- R&#45;&gt;OR2 -->
<g id="edge14" class="edge">
<title>R&#45;&gt;OR2</title>
<path fill="none" stroke="black" d="M80.85,-504.76C75.96,-496.19 69.84,-485.49 64.36,-475.9"/>
<polygon fill="black" stroke="black" points="67.36,-474.09 59.36,-467.15 61.28,-477.57 67.36,-474.09"/>
</g>
<!-- R&#45;&gt;T -->
<!-- T&#45;&gt;I -->
<!-- IT -->
<g id="node16" class="node">
<title>IT</title>
<ellipse fill="none" stroke="black" cx="245.13" cy="-306" rx="27" ry="18"/>
<text text-anchor="middle" x="245.13" y="-302.3" font-family="Times,serif" font-size="14.00">IT</text>
</g>
<!-- T&#45;&gt;IT -->
<g id="edge17" class="edge">
<title>T&#45;&gt;IT</title>
<path fill="none" stroke="black" d="M213.39,-433.91C221.41,-423.87 231.04,-410.01 236.13,-396 243.33,-376.21 245.42,-352.41 245.81,-334.4"/>
<polygon fill="black" stroke="black" points="249.31,-334.3 245.85,-324.28 242.31,-334.27 249.31,-334.3"/>
</g>
<!-- I&#45;&gt;N -->
<!-- I&#45;&gt;IT -->
<g id="edge18" class="edge">
<title>I&#45;&gt;IT</title>
<path fill="none" stroke="black" d="M210.34,-361.12C215.98,-352.34 223.1,-341.26 229.43,-331.42"/>
<polygon fill="black" stroke="black" points="232.5,-333.13 234.96,-322.82 226.61,-329.34 232.5,-333.13"/>
</g>
<!-- N&#45;&gt;G -->
<!-- GN -->
<g id="node17" class="node">
<title>GN</title>
<ellipse fill="none" stroke="black" cx="156.13" cy="-162" rx="27" ry="18"/>
<text text-anchor="middle" x="156.13" y="-158.3" font-family="Times,serif" font-size="14.00">GN</text>
</g>
<!-- N&#45;&gt;GN -->
<g id="edge19" class="edge">
<title>N&#45;&gt;GN</title>
<path fill="none" stroke="black" d="M171.08,-287.87C168.18,-263.67 162.86,-219.21 159.41,-190.39"/>
<polygon fill="black" stroke="black" points="162.85,-189.7 158.19,-180.19 155.9,-190.53 162.85,-189.7"/>
</g>
<!-- G&#45;&gt;GN -->
<g id="edge20" class="edge">
<title>G&#45;&gt;GN</title>
<path fill="none" stroke="black" d="M126.94,-216.76C131.55,-208.28 137.28,-197.71 142.45,-188.2"/>
<polygon fill="black" stroke="black" points="145.67,-189.61 147.36,-179.15 139.52,-186.27 145.67,-189.61"/>
</g>
<!-- GINORST -->
<g id="node19" class="node">
<title>GINORST</title>
<ellipse fill="none" stroke="black" cx="105.13" cy="-18" rx="48.99" ry="18"/>
<text text-anchor="middle" x="105.13" y="-14.3" font-family="Times,serif" font-size="14.00">GINORST</text>
</g>
<!-- ORS&#45;&gt;GINORST -->
<g id="edge23" class="edge">
<title>ORS&#45;&gt;GINORST</title>
<path fill="none" stroke="black" d="M51.91,-359.97C54.53,-333.34 59.13,-280.21 59.13,-235 59.13,-235 59.13,-235 59.13,-161 59.13,-118.81 77.73,-72.85 91.28,-44.98"/>
<polygon fill="black" stroke="black" points="94.47,-46.42 95.82,-35.91 88.21,-43.29 94.47,-46.42"/>
</g>
<!-- GINT -->
<g id="node18" class="node">
<title>GINT</title>
<ellipse fill="none" stroke="black" cx="156.13" cy="-90" rx="31.7" ry="18"/>
<text text-anchor="middle" x="156.13" y="-86.3" font-family="Times,serif" font-size="14.00">GINT</text>
</g>
<!-- IT&#45;&gt;GINT -->
<g id="edge21" class="edge">
<title>IT&#45;&gt;GINT</title>
<path fill="none" stroke="black" d="M241.19,-287.94C233.87,-257.87 216.69,-193.9 192.13,-144 187.27,-134.12 180.78,-123.95 174.66,-115.2"/>
<polygon fill="black" stroke="black" points="177.41,-113.04 168.72,-106.99 171.74,-117.14 177.41,-113.04"/>
</g>
<!-- GN&#45;&gt;GINT -->
<g id="edge22" class="edge">
<title>GN&#45;&gt;GINT</title>
<path fill="none" stroke="black" d="M156.13,-143.7C156.13,-135.98 156.13,-126.71 156.13,-118.11"/>
<polygon fill="black" stroke="black" points="159.63,-118.1 156.13,-108.1 152.63,-118.1 159.63,-118.1"/>
</g>
<!-- GINT&#45;&gt;GINORST -->
<g id="edge24" class="edge">
<title>GINT&#45;&gt;GINORST</title>
<path fill="none" stroke="black" d="M144.56,-73.12C138.28,-64.51 130.39,-53.67 123.31,-43.96"/>
<polygon fill="black" stroke="black" points="126.09,-41.82 117.37,-35.8 120.43,-45.94 126.09,-41.82"/>
</g>
</g>
</svg>
